<?xml version="1.0" standalone="no"?>
<!DOCTYPE svg PUBLIC "-//W3C//DTD SVG 20010904//EN"
 "http://www.w3.org/TR/2001/REC-SVG-20010904/DTD/svg10.dtd">
<svg version="1.0" xmlns="http://www.w3.org/2000/svg"
 width="1401.000000pt" height="1368.000000pt" viewBox="0 0 1401.000000 1368.000000"
 preserveAspectRatio="xMidYMid meet">
<g transform="translate(0.000000,1368.000000) scale(0.100000,-0.100000)"
fill="#008236" stroke="none">
<path d="M7795 12409 c-351 -15 -643 -37 -865 -64 -69 -8 -170 -19 -225 -25
-55 -5 -116 -14 -135 -20 -19 -5 -50 -10 -69 -10 -19 0 -70 -7 -115 -15 -45
-9 -103 -20 -131 -25 -27 -5 -93 -16 -145 -25 -258 -44 -665 -159 -895 -253
-305 -125 -602 -318 -717 -467 -145 -188 -146 -190 -189 -315 -53 -154 -59
-501 -10 -657 32 -105 73 -206 101 -248 188 -286 372 -452 750 -677 101 -60
667 -348 684 -348 2 0 75 -34 163 -76 87 -41 172 -81 188 -89 17 -8 86 -40
155 -71 276 -125 753 -370 1040 -533 36 -20 92 -52 125 -71 33 -18 76 -43 95
-55 19 -12 91 -54 160 -92 169 -96 543 -317 630 -373 8 -5 43 -26 77 -46 35
-19 98 -59 142 -87 44 -29 118 -77 166 -107 48 -30 125 -82 171 -115 46 -33
134 -96 196 -140 326 -230 666 -542 842 -769 70 -90 188 -263 212 -309 123
-239 174 -368 203 -522 4 -22 14 -60 21 -85 9 -32 13 -127 14 -325 0 -310 -2
-324 -72 -544 -53 -163 -54 -167 -117 -276 -95 -164 -235 -344 -308 -393 -24
-17 -50 -38 -57 -47 -27 -32 -189 -135 -297 -188 -290 -143 -623 -199 -943
-159 -367 46 -662 167 -980 401 -65 48 -205 164 -220 182 -3 3 -30 28 -61 55
-31 27 -73 69 -94 94 -20 25 -67 77 -104 115 -80 85 -162 180 -222 258 -124
163 -198 266 -295 412 -59 88 -128 192 -154 230 -26 39 -98 153 -160 255 -62
102 -123 201 -135 220 -13 19 -34 55 -47 80 -14 25 -46 79 -72 121 -25 42 -46
79 -46 82 0 3 -13 25 -29 49 -16 24 -64 106 -106 183 -43 77 -92 163 -109 190
-18 28 -65 109 -105 180 -39 72 -76 137 -81 145 -44 71 -225 421 -277 536 -12
27 -62 132 -111 234 -130 269 -202 424 -202 432 0 11 -332 682 -345 698 -7 8
-29 47 -49 85 -63 121 -232 379 -292 445 -12 14 -42 47 -66 74 -88 100 -297
260 -389 300 -195 83 -212 88 -334 105 -206 29 -378 19 -505 -29 -30 -12 -73
-28 -95 -36 -107 -39 -290 -194 -420 -354 -60 -73 -174 -268 -225 -380 -18
-41 -46 -104 -62 -140 -37 -82 -115 -317 -157 -475 -18 -66 -39 -143 -47 -171
-8 -28 -14 -61 -14 -74 0 -12 -11 -68 -24 -124 -13 -55 -28 -130 -34 -166 -33
-192 -64 -400 -93 -619 -16 -126 -30 -304 -59 -741 -11 -171 -15 -1511 -5
-1635 3 -38 10 -97 15 -130 6 -33 14 -112 20 -175 6 -63 17 -158 25 -210 8
-52 19 -131 25 -175 24 -167 54 -356 75 -465 9 -47 20 -105 25 -130 15 -83 32
-164 46 -222 8 -32 14 -72 14 -88 0 -17 11 -70 24 -118 13 -48 34 -132 46
-187 12 -55 28 -125 36 -155 8 -30 25 -102 38 -160 13 -58 31 -130 39 -160 36
-131 80 -298 87 -330 12 -59 95 -348 175 -613 10 -32 26 -62 36 -67 11 -7 596
-9 1571 -8 1771 3 1593 -8 1511 101 -26 35 -75 104 -108 152 -33 48 -87 124
-120 169 -33 45 -78 108 -100 141 -22 33 -44 65 -50 71 -13 16 -180 257 -345
499 -99 145 -312 473 -319 490 -2 6 -23 39 -46 75 -23 36 -82 135 -130 220
-49 85 -117 205 -152 265 -69 119 -366 710 -450 895 -154 340 -348 842 -428
1110 -7 25 -27 90 -45 145 -17 55 -36 119 -41 143 -5 24 -12 48 -15 54 -4 6
-10 24 -14 42 -4 17 -18 67 -30 111 -12 44 -26 100 -30 125 -5 25 -21 97 -36
160 -33 143 -58 276 -79 405 -8 55 -20 125 -27 155 -6 30 -14 91 -18 135 -4
44 -13 116 -19 160 -31 237 -36 335 -36 775 0 473 1 492 47 688 24 106 53 171
111 249 53 72 97 104 181 133 80 27 165 26 253 -4 218 -74 413 -318 599 -751
26 -60 57 -132 69 -160 12 -27 25 -61 29 -75 4 -14 11 -34 16 -45 5 -11 21
-54 36 -95 14 -41 44 -124 66 -185 22 -60 54 -153 70 -205 17 -52 50 -153 73
-225 38 -114 84 -254 273 -840 24 -77 64 -194 87 -260 24 -66 69 -194 100
-285 31 -91 72 -204 91 -252 145 -373 191 -488 241 -602 25 -56 53 -121 63
-146 19 -48 153 -332 172 -365 7 -11 54 -99 106 -195 51 -96 121 -221 155
-278 34 -56 67 -110 72 -120 48 -84 89 -149 234 -367 91 -137 184 -273 206
-302 22 -28 65 -84 95 -123 97 -126 113 -146 219 -266 135 -153 473 -488 574
-567 43 -34 109 -86 145 -115 71 -57 297 -208 422 -284 159 -95 576 -290 685
-319 17 -4 50 -15 75 -25 211 -79 654 -168 915 -185 77 -5 159 -13 182 -19 54
-13 497 -13 543 0 19 5 71 12 115 15 178 12 450 83 658 171 380 161 636 332
887 591 150 155 192 205 302 363 44 63 168 266 168 275 0 2 18 42 41 87 74
151 143 346 174 488 7 36 21 88 30 115 9 28 20 88 25 135 5 47 14 123 20 170
13 96 5 578 -10 645 -5 22 -10 74 -10 116 0 42 -4 89 -10 105 -9 28 -18 81
-41 239 -5 39 -16 99 -25 135 -9 36 -20 85 -26 110 -18 75 -69 252 -90 310
-11 30 -31 87 -45 125 -46 127 -202 462 -286 610 -51 92 -280 425 -336 490
-34 39 -86 101 -117 139 -137 166 -477 487 -749 707 -160 129 -160 130 -480
342 -283 189 -284 190 -430 273 -55 32 -131 76 -170 99 -81 49 -285 156 -465
244 -69 34 -133 66 -142 71 -10 6 -23 10 -28 10 -6 0 -50 19 -98 41 -48 23
-127 58 -177 79 -49 20 -117 49 -150 63 -33 14 -109 44 -170 67 -186 69 -247
92 -325 121 -203 76 -328 119 -720 248 -234 77 -447 147 -475 156 -46 14 -215
69 -640 208 -259 85 -341 114 -435 153 -30 13 -107 43 -170 68 -265 102 -554
270 -688 400 -61 58 -117 138 -149 211 -18 41 -22 69 -23 156 0 102 1 109 35
177 69 137 215 218 480 266 145 26 500 39 720 27 105 -6 235 -11 291 -11 55 0
125 -4 155 -10 30 -5 101 -14 159 -20 153 -14 319 -37 455 -62 33 -6 80 -14
105 -19 25 -4 86 -14 135 -23 87 -14 307 -66 450 -105 39 -11 115 -31 170 -46
55 -15 127 -35 159 -46 33 -10 68 -19 78 -19 9 0 32 -6 50 -14 18 -7 92 -33
163 -56 72 -23 207 -72 300 -107 94 -36 190 -73 215 -82 25 -9 50 -19 55 -23
6 -3 38 -16 73 -27 34 -12 90 -35 124 -51 34 -17 66 -30 71 -30 5 0 52 -20
105 -46 54 -25 106 -49 117 -54 223 -100 790 -390 910 -465 28 -17 75 -44 105
-59 56 -29 114 -63 207 -123 28 -18 55 -33 59 -33 4 0 44 -24 88 -53 45 -29
116 -76 159 -103 44 -27 107 -67 140 -88 90 -57 386 -256 502 -337 55 -39 123
-86 150 -105 28 -19 70 -49 95 -67 49 -36 146 -106 225 -162 28 -20 77 -56
110 -80 139 -102 222 -155 245 -157 l25 -3 0 1560 0 1559 -31 21 c-18 12 -63
29 -100 39 -38 10 -112 31 -164 46 -52 16 -140 40 -195 55 -55 15 -136 38
-180 51 -44 13 -163 44 -265 69 -102 26 -198 50 -215 55 -16 5 -64 16 -105 25
-41 8 -102 22 -135 31 -116 30 -171 43 -300 69 -71 15 -159 33 -195 40 -62 14
-172 35 -365 70 -49 9 -123 23 -164 31 -40 8 -93 14 -116 14 -24 0 -56 5 -72
11 -15 6 -66 15 -113 19 -130 13 -260 30 -308 41 -24 5 -98 14 -165 20 -67 6
-165 15 -217 20 -126 13 -1174 19 -1415 8z"/>
</g>
</svg>
